<?xml version="1.0" encoding="utf-8"?>
<!-- Generator: Adobe Illustrator 24.3.0, SVG Export Plug-In . SVG Version: 6.00 Build 0)  -->
<svg version="1.1" id="Capa_1" xmlns="http://www.w3.org/2000/svg" xmlns:xlink="http://www.w3.org/1999/xlink" x="0px" y="0px"
	 viewBox="0 0 671.4 672.9" style="enable-background:new 0 0 671.4 672.9;" xml:space="preserve">
<style type="text/css">
	.st0{fill:#FFFFFF;}
</style>
<g>
	<path class="st0" d="M670.6,58.5l-1.3-12.1c-2.5-24.7-22.9-43.8-48.2-45.7L611,0.1c-30.5-1.3-60.3,10.2-81.9,31.7L427.5,132.8
		L95,132.1c-27.9,0-55.2,11.4-75.5,31.7l-14,14c-4.4,4.4-6.3,12.1-5.1,18.4c1.9,6.3,6.3,11.4,12.7,13.3l264.7,72.4l-61.6,61.6
		l-111.7,3.8c-11.4,0-22.2,4.4-30.5,13.3l-10.8,10.8c-4.4,4.4-6.3,11.4-5.1,17.8c1.9,6.3,6.3,10.8,12.1,13.3l142.2,53.9l57.1,147.2
		c2.5,6.3,8.3,10.8,14.6,11.4c6.3,0.6,12.1-1.3,16.5-6.3l11.4-11.4c7.6-7.6,12.1-17.8,13.3-30.5l3.8-112.3l62.2-60.9l71.7,265.3
		c1.9,6.3,7,11.4,13.3,13.3c1.9,0.6,3.2,0.6,5.1,0.6c5.1,0,10.2-1.9,14-5.7l14-14c20.3-20.3,31.7-47.6,31.7-76.2V244.5l98.4-99
		C663,122.6,674.4,90.2,670.6,58.5L670.6,58.5z M621.8,127.7L518.9,230.5c-2.5,2.5-3.8,5.7-3.8,8.9v337.7c0,22.2-8.9,42.5-24.1,58.4
		l-6.3,6.3L409.1,367c-1.3-4.4-4.4-7.6-8.9-8.9c-1.3,0-1.9-0.6-3.2-0.6c-3.2,0-6.3,1.3-8.9,3.8l-81.2,80c-2.5,2.5-3.8,5.1-3.8,8.9
		l-3.8,116.8c0,3.8-1.3,9.5-5.7,13.3l-4.4,4.4L234,441.9c-1.3-3.2-3.8-5.7-7.6-7L88.6,382.2l3.8-3.8c1.9-1.9,7-5.7,13.3-5.7
		l117.4-3.8c3.2,0,6.3-1.3,8.3-3.8l80.6-80.6c3.2-3.2,4.4-7.6,3.2-12.1c-1.3-4.4-4.4-7.6-8.9-8.9L30.9,188l6.3-6.4
		c15.2-15.2,36.2-24.1,57.8-24.1l337.7,0.6c3.2,0,6.4-1.3,8.9-3.8L546.9,49.6c16.5-16.5,39.4-25.4,62.8-24.1l10.2,0.6
		c12.7,0.6,22.8,10.8,24.1,22.8l1.3,12.1C647.8,85.8,639.5,109.9,621.8,127.7L621.8,127.7z M621.8,127.7"/>
</g>
</svg>
