<?xml version="1.0" encoding="utf-8"?>
<!-- Generator: Adobe Illustrator 24.3.0, SVG Export Plug-In . SVG Version: 6.00 Build 0)  -->
<svg version="1.1" id="Capa_1" xmlns="http://www.w3.org/2000/svg" xmlns:xlink="http://www.w3.org/1999/xlink" x="0px" y="0px"
	 viewBox="0 0 512 512" style="enable-background:new 0 0 512 512;" xml:space="preserve">
<style type="text/css">
	.st0{fill:#FFFFFF;}
</style>
<g>
	<path class="st0" d="M453.3,512H58.7C26.3,512,0,485.7,0,453.3v-352C0,69,26.3,42.7,58.7,42.7h394.7c32.4,0,58.7,26.3,58.7,58.7
		v352C512,485.7,485.7,512,453.3,512L453.3,512z M58.7,74.7C44,74.7,32,86.6,32,101.3v352C32,468,44,480,58.7,480h394.7
		c14.7,0,26.7-12,26.7-26.7v-352c0-14.7-12-26.7-26.7-26.7L58.7,74.7L58.7,74.7z"/>
	<path class="st0" d="M496,202.7H16c-8.8,0-16-7.2-16-16s7.2-16,16-16h480c8.8,0,16,7.2,16,16S504.8,202.7,496,202.7L496,202.7z"/>
	<path class="st0" d="M122.7,128c-8.8,0-16-7.2-16-16V16c0-8.8,7.2-16,16-16s16,7.2,16,16v96C138.7,120.8,131.5,128,122.7,128
		L122.7,128z"/>
	<path class="st0" d="M389.3,128c-8.8,0-16-7.2-16-16V16c0-8.8,7.2-16,16-16s16,7.2,16,16v96C405.3,120.8,398.2,128,389.3,128
		L389.3,128z"/>
</g>
</svg>
