<?xml version="1.0" encoding="iso-8859-1"?>
<!-- Generator: Adobe Illustrator 24.3.0, SVG Export Plug-In . SVG Version: 6.00 Build 0)  -->
<svg version="1.1" id="Capa_1" xmlns="http://www.w3.org/2000/svg" xmlns:xlink="http://www.w3.org/1999/xlink" x="0px" y="0px"
	 viewBox="0 0 494.01 494" style="enable-background:new 0 0 494.01 494;" xml:space="preserve">
<g>
	<path style="fill:#FFFFFF;" d="M247.019,494C110.814,494,0,383.193,0,246.995C0,110.801,110.814,0,247.019,0
		C383.21,0,494.01,110.801,494.01,246.995C494.01,383.193,383.21,494,247.019,494z M247.019,28.852
		c-120.3,0-218.167,97.857-218.167,218.143c0,120.29,97.867,218.153,218.167,218.153c120.286,0,218.14-97.864,218.14-218.153
		C465.158,126.709,367.305,28.852,247.019,28.852z"/>
	<g>
		<g>
			<path style="fill:#FFFFFF;" d="M352.638,351.035c6.312,7.65,15.332,13.48,25.703,16.758l6.314,1.822h-73.503l14.43-4.372
				c4.058-1.093,5.41-5.1,3.156-8.015l-81.169-98.366l-87.033,97.273c-2.706,2.915-1.352,6.921,2.706,8.38l14.881,5.465h-59.525
				l9.02-3.28c8.568-3.278,15.782-8.015,21.194-14.208l91.993-102.736l-95.601-116.217c-6.313-7.65-15.332-13.48-25.704-16.758
				l-7.215-2.187h73.503l-13.978,4.372c-4.058,1.093-5.412,5.102-3.158,8.016l87.483,106.014l93.797-104.558
				c2.706-2.915,1.352-6.922-2.706-8.38l-14.43-5.465h59.525l-9.018,3.28c-8.568,3.278-15.784,8.015-21.194,14.208l-98.757,110.022
				l89.737,108.931H352.638z"/>
		</g>
	</g>
	<g>
		<g>
			<path style="fill:#FFFFFF;" d="M421.778,320.992l8.423,1.304h-85.825l8.424-1.304c12.111-1.955,20.009-6.736,20.009-12.17
				v-62.586H125.863v62.586c0,5.434,7.897,10.214,20.008,12.17l8.424,1.304H68.47l8.424-1.304
				c12.111-1.955,20.008-6.736,20.008-12.17V183.869c0-5.432-7.897-10.213-20.008-12.169l-8.424-1.305h85.825l-8.424,1.305
				c-12.111,1.956-20.008,6.736-20.008,12.169v56.283h246.946v-56.283c0-5.432-7.897-10.213-20.009-12.169l-8.424-1.305h85.825
				l-8.423,1.305c-12.111,1.956-20.01,6.736-20.01,12.169v124.953C401.769,314.256,409.667,319.037,421.778,320.992z"/>
		</g>
	</g>
</g>
</svg>
