<?xml version="1.0" encoding="utf-8"?>
<!-- Generator: Adobe Illustrator 24.3.0, SVG Export Plug-In . SVG Version: 6.00 Build 0)  -->
<svg version="1.1" id="Capa_1" xmlns="http://www.w3.org/2000/svg" xmlns:xlink="http://www.w3.org/1999/xlink" x="0px" y="0px"
	 viewBox="0 0 512 512" style="enable-background:new 0 0 512 512;" xml:space="preserve">
<style type="text/css">
	.st0{fill:#FFFFFF;}
</style>
<g>
	<path class="st0" d="M256,0C114.5,0,0,114.5,0,256c0,44.9,11.7,88.8,33.9,127.4L1,485.9c-2.3,7.1-0.4,15,4.9,20.3
		c5.3,5.3,13.1,7.2,20.3,4.9l102.4-33C167.2,500.3,211.1,512,256,512c141.5,0,256-114.5,256-256C512,114.5,397.5,0,256,0L256,0z
		 M256,472c-40.6,0-80.1-11.3-114.3-32.7c-4.9-3.1-11-3.9-16.7-2.1L51,461l23.8-73.9c1.8-5.6,1-11.7-2.1-16.7
		C51.3,336.1,40,296.6,40,256c0-119.1,96.9-216,216-216s216,96.9,216,216S375.1,472,256,472L256,472z M281,256c0,13.8-11.2,25-25,25
		s-25-11.2-25-25c0-13.8,11.2-25,25-25S281,242.2,281,256L281,256z M381,256c0,13.8-11.2,25-25,25s-25-11.2-25-25
		c0-13.8,11.2-25,25-25S381,242.2,381,256L381,256z M181,256c0,13.8-11.2,25-25,25c-13.8,0-25-11.2-25-25c0-13.8,11.2-25,25-25
		C169.8,231,181,242.2,181,256L181,256z"/>
</g>
</svg>
