<?xml version="1.0" encoding="utf-8"?>
<!-- Generator: Adobe Illustrator 24.3.0, SVG Export Plug-In . SVG Version: 6.00 Build 0)  -->
<svg version="1.1" id="Capa_1" xmlns="http://www.w3.org/2000/svg" xmlns:xlink="http://www.w3.org/1999/xlink" x="0px" y="0px"
	 viewBox="0 0 427 458.2" style="enable-background:new 0 0 427 458.2;" xml:space="preserve">
<style type="text/css">
	.st0{fill:#FFFFFF;}
</style>
<path class="st0" d="M410.3,458.2H16.7c-9.2,0-16.7-7.5-16.7-16.7c0-118.3,75.8-183.4,213.5-183.4S427,323.3,427,441.5
	C427,450.8,419.5,458.2,410.3,458.2z M34.1,424.8H393c-6.6-88.4-66.9-133.2-179.5-133.2S40.6,336.4,34.1,424.8z"/>
<path class="st0" d="M213.5,233.6c-61.2,0-110.9-54-110.9-120.4C102.6,48.7,150.3,0,213.5,0s110.9,48.7,110.9,113.2
	C324.4,179.6,274.7,233.6,213.5,233.6z M213.5,33.4c-44.9,0-77.5,33.5-77.5,79.7c0,48,34.8,87,77.5,87s77.5-39,77.5-87
	C291,67.7,257.7,33.4,213.5,33.4z"/>
</svg>
