<?xml version="1.0" encoding="utf-8"?>
<!-- Generator: Adobe Illustrator 24.3.0, SVG Export Plug-In . SVG Version: 6.00 Build 0)  -->
<svg version="1.1" id="Capa_1" xmlns="http://www.w3.org/2000/svg" xmlns:xlink="http://www.w3.org/1999/xlink" x="0px" y="0px"
	 viewBox="0 0 420.8 308" style="enable-background:new 0 0 420.8 308;" xml:space="preserve">
<style type="text/css">
	.st0{fill:#FFFFFF;}
</style>
<path class="st0" d="M413.6,147.6H378c14.8-33.6,13.2-60.8,7.6-79.2C376,35.6,343.6,0,295.6,0c-12.8,0-25.6,2.4-38.8,7.2
	c-22.8,8.4-38,17.6-44.8,22.4c-6.8-4.8-21.6-14-44.8-22.4C154,2.4,140.8,0,128.4,0c-48,0-80.4,35.6-90,68.4
	c-5.6,19.6-7.6,49.2,11.2,86.4H6.4c-3.6,0-6.4,2.8-6.4,6.4s2.8,6.4,6.4,6.4h50.8c2,3.6,4.4,7.2,7.2,10.8
	c41.6,60,132,125.2,148.4,129.2v0.4c0,0,0.4,0,0.8-0.4c0.4,0,0.8,0,1.2,0v-0.4c14-6.8,100.8-62.8,146.4-129.2c4.4-6,8-12,11.2-18h42
	c3.6,0,6.4-2.8,6.4-6.4S417.2,147.6,413.6,147.6z M51.2,72c8.4-28.4,36-58.8,77.6-58.8c11.2,0,22.8,2.4,34.4,6.4
	c29.2,10.8,44.8,23.2,45.2,23.2c2.4,2,5.6,2,8,0c0,0,15.6-12.4,45.2-23.2c11.6-4.4,23.2-6.4,34.4-6.4c41.2,0,69.2,30.4,77.6,58.8
	c6.8,23.2,3.2,48.8-9.6,75.6h-39.2l-16.4-28c-1.2-2-3.2-3.2-5.6-3.2s-4.4,0.8-5.6,2.8l-13.6,20l-22-71.6c-0.8-2.8-3.6-4.4-6.4-4.8
	c-2.8,0-5.6,2-6.4,4.8L211.6,196L171.2,92.8c-0.8-2.4-3.2-4-5.6-4c-2.8,0-4.8,1.2-6,3.6l-31.6,62H64.4C48.4,125.2,44,97.2,51.2,72z
	 M349.6,171.2c-42.4,62-120.4,112-137.2,122.8c-17.2-10.8-94.8-61.2-137.6-122.8c-0.8-1.2-1.6-2.4-2.4-3.6h58.8c2.4,0,4.8-1.2,6-3.6
	l26.8-52.8l42,107.6c0.8,2.4,3.6,4,6,4c0,0,0,0,0.4,0c2.8,0,5.2-2,6-4.8l36.8-126l19.6,63.6c0.8,2.4,2.8,4,5.2,4.4
	c2.4,0.4,4.8-0.8,6.4-2.8l15.6-22.8l13.2,22.4c1.2,2,3.2,3.2,5.6,3.2h36C354.4,164,352,167.6,349.6,171.2z"/>
</svg>
