<?xml version="1.0" encoding="utf-8"?>
<!-- Generator: Adobe Illustrator 24.3.0, SVG Export Plug-In . SVG Version: 6.00 Build 0)  -->
<svg version="1.1" id="Capa_1" xmlns="http://www.w3.org/2000/svg" xmlns:xlink="http://www.w3.org/1999/xlink" x="0px" y="0px"
	 viewBox="0 0 710.8 797.4" style="enable-background:new 0 0 710.8 797.4;" xml:space="preserve">
<style type="text/css">
	.st0{fill:#FFFFFF;}
</style>
<g>
	<path class="st0" d="M128.3,0c-5.2,0-9.4,4.2-9.4,9.4V194H98V9.4C98,4.2,93.8,0,88.7,0c-5.2,0-9.4,4.2-9.4,9.4V194H58.4V9.4
		C58.4,4.2,54.2,0,49,0c-5.2,0-9.4,4.2-9.4,9.4V194H18.8V9.4c0-5.2-4.2-9.4-9.4-9.4C4.2,0,0,4.2,0,9.4v240.9
		c0,28.4,17.5,53.7,43.4,64L31,758.5c-0.3,11.7,4.7,22.7,13.7,30.2c6.8,5.6,15.3,8.7,24.1,8.7c8.8,0,17.4-3.1,24.2-8.7
		c9-7.5,14-18.5,13.7-30.2L94.2,314.3c25.9-10.3,43.4-35.6,43.4-64V9.4C137.7,4.2,133.5,0,128.3,0L128.3,0z M118.9,250.3
		c0,22.5-15.1,42.3-36.7,48.3c-4.2,1.2-7,5-6.9,9.3L87.9,759c0.2,5.9-2.4,11.4-6.9,15.2c-3.4,2.8-7.7,4.4-12.2,4.4
		c-4.4,0-8.7-1.6-12.2-4.4c-4.5-3.8-7-9.3-6.9-15.2l12.6-451.1c0.1-4.3-2.7-8.2-6.9-9.3c-21.6-6-36.7-25.8-36.7-48.3v-37.5h100.1
		L118.9,250.3L118.9,250.3z"/>
	<path class="st0" d="M362.8,0c-60.1,0-106.7,101.5-106.7,188.8c0,37.3,8.5,67.4,25.4,89.5c13.8,18.2,33.1,30.3,56,35.4L325,758.5
		c-0.3,11.7,4.7,22.7,13.7,30.2c6.8,5.6,15.3,8.7,24.1,8.7c8.8,0,17.4-3.1,24.2-8.7c9-7.5,14-18.5,13.7-30.2l-12.4-444.8
		c22.9-5.1,42.1-17.2,56-35.4c16.8-22.1,25.3-52.2,25.3-89.5C469.5,101.5,422.9,0,362.8,0L362.8,0z M377.2,296.6
		c-4.7,0.7-8.2,4.8-8.1,9.6L381.8,759c0.2,5.9-2.3,11.4-6.9,15.2c-3.4,2.8-7.7,4.4-12.2,4.4s-8.8-1.6-12.2-4.4
		c-4.5-3.8-7-9.3-6.9-15.2l12.7-452.9c0.1-4.8-3.3-8.9-8.1-9.6c-47.4-6.7-73.5-45-73.5-107.8c0-84.2,44.4-170,88-170
		c43.6,0,88,85.8,88,170C450.7,251.6,424.6,289.9,377.2,296.6L377.2,296.6z"/>
	<path class="st0" d="M655.3-2c-21.1,0-38.3,17.2-38.3,38.3v370l-9.8,352.2c-0.3,11.7,4.7,22.7,13.7,30.2c6.8,5.6,15.3,8.7,24.1,8.7
		c8.8,0,17.4-3.1,24.2-8.7c9-7.5,14-18.5,13.7-30.2l-9.2-328.9c22-7.6,37.3-28.6,37.3-52.5V53.5C710.8,22.9,685.9-2,655.3-2L655.3-2
		z M692,377.1c0,17.6-12.6,32.8-29.9,36.1c-4.5,0.9-7.8,4.9-7.6,9.5L664,759c0.2,5.9-2.3,11.4-6.9,15.2c-3.4,2.8-7.7,4.4-12.2,4.4
		c-4.4,0-8.7-1.6-12.2-4.4c-4.5-3.8-7.1-9.3-6.9-15.2l9.9-352.3c0-0.1,0-0.2,0-0.3V36.3c0-10.8,8.8-19.5,19.5-19.5
		c20.3,0,36.8,16.5,36.8,36.8L692,377.1L692,377.1z"/>
</g>
</svg>
