<?xml version="1.0" encoding="utf-8"?>
<!-- Generator: Adobe Illustrator 24.3.0, SVG Export Plug-In . SVG Version: 6.00 Build 0)  -->
<svg version="1.1" id="Capa_1" xmlns="http://www.w3.org/2000/svg" xmlns:xlink="http://www.w3.org/1999/xlink" x="0px" y="0px"
	 viewBox="0 0 710.1 710.1" style="enable-background:new 0 0 710.1 710.1;" xml:space="preserve">
<style type="text/css">
	.st0{fill:#FFFFFF;}
</style>
<g>
	<path class="st0" d="M576.9,710.1H458.6c-8.2,0-14.8-6.6-14.8-14.8V488.2c0-8.2-6.6-14.8-14.8-14.8H281.1
		c-8.2,0-14.8,6.6-14.8,14.8v207.1c0,8.2-6.6,14.8-14.8,14.8H133.1c-24.5,0-44.4-19.9-44.4-44.4V384.6H29.6
		C13.3,384.6,0,371.3,0,355c0-7.8,3.2-15.5,8.8-21.1L344.7,4.2c5.7-5.6,15-5.6,20.7,0l335.8,329.6c5.7,5.7,8.9,13.4,8.9,21.2
		c0,16.3-13.3,29.6-29.6,29.6h-59.2v281.1C621.3,690.1,601.4,710.1,576.9,710.1L576.9,710.1z M473.4,680.5h103.6
		c8.2,0,14.8-6.6,14.8-14.8V369.8c0-8.2,6.6-14.8,14.8-14.8h74L355,35.5L29.6,354.9l74,0.1c8.2,0,14.8,6.6,14.8,14.8v295.9
		c0,8.2,6.6,14.8,14.8,14.8h103.6V488.2c0-24.5,19.9-44.4,44.4-44.4H429c24.5,0,44.4,19.9,44.4,44.4L473.4,680.5L473.4,680.5z"/>
</g>
</svg>
